<svg width="50" height="32" viewBox="0 0 50 32" id='svg-icon' xmlns="http://www.w3.org/2000/svg">
<path d="M16.8325 14.8966L16.8325 17.1035L33.5828 17.1035L33.5828 14.8966L16.8325 14.8966Z" />
<path d="M44.9278 2.2069C26.3165 2.2069 26.3165 29.7931 44.9278 29.7931L44.9278 32C23.3386 32 23.3386 4.05062e-06 44.9278 3.10692e-06L44.9278 2.2069Z" />
<path d="M5.24991 3.8147e-06C26.839 2.87101e-06 26.839 32 5.24991 32L5.24991 29.7931C23.8613 29.7931 23.8613 2.2069 5.24991 2.2069L5.24991 3.8147e-06Z" />
<path d="M14.3022 16C14.3022 13.1993 12.0045 10.9288 9.17017 10.9288C6.33585 10.9288 4.03818 13.1993 4.03818 16C4.03818 18.8007 6.33585 21.0712 9.17017 21.0712C12.0045 21.0712 14.3022 18.8007 14.3022 16Z" />
<path d="M46.092 16C46.092 13.1993 43.7944 10.9288 40.96 10.9288C38.1257 10.9288 35.828 13.1993 35.828 16C35.828 18.8007 38.1257 21.0712 40.96 21.0712C43.7944 21.0712 46.092 18.8007 46.092 16Z" />
<path d="M48.7859 16.0704C48.7859 11.8773 45.346 8.47817 41.1026 8.47817C36.8592 8.47817 33.4192 11.8773 33.4192 16.0704C33.4192 20.2635 36.8592 23.6627 41.1026 23.6627C45.346 23.6627 48.7859 20.2635 48.7859 16.0704Z" stroke-miterlimit="10"/>
<path d="M16.711 15.9296C16.711 11.7365 13.271 8.3373 9.02761 8.3373C4.78422 8.3373 1.34427 11.7365 1.34427 15.9296C1.34427 20.1227 4.78422 23.5219 9.02761 23.5219C13.271 23.5219 16.711 20.1227 16.711 15.9296Z" stroke-miterlimit="10"/>
</svg>
